<svg xmlns="http://www.w3.org/2000/svg" version="1.1" xmlns:xlink="http://www.w3.org/1999/xlink" xmlns:svgjs="http://svgjs.dev/svgjs" width="1500" height="1500" viewBox="0 0 1500 1500"><rect width="1500" height="1500" fill="#ffffff"></rect><g transform="matrix(0.6666666666666666,0,0,0.6666666666666666,249.39393939393938,537.5840547434086)"><svg viewBox="0 0 396 168" data-background-color="#003366" preserveAspectRatio="xMidYMid meet" height="636" width="1500" xmlns="http://www.w3.org/2000/svg" xmlns:xlink="http://www.w3.org/1999/xlink"><g id="tight-bounds" transform="matrix(1,0,0,1,0.2400000000000091,0.16480849789468266)"><svg viewBox="0 0 395.52 167.67038300421063" height="167.67038300421063" width="395.52"><g><svg viewBox="0 0 397.4975999999999 168.50873491923167" height="167.67038300421063" width="395.52"><g><rect width="397.4975999999999" height="3.0522351671742975" x="0" y="94.71395780443703" fill="#000000" opacity="1" stroke-width="0" stroke="transparent" fill-opacity="1" class="rect-yte-0" data-fill-palette-color="secondary" rx="1%" id="yte-0" data-palette-color="#ff9966"></rect></g><g transform="matrix(1,0,0,1,0.9887999999999693,105.75633738829798)"><svg viewBox="0 0 395.52 62.7523975309337" height="62.7523975309337" width="395.52"><g id="textblocktransform"><svg viewBox="0 0 395.52 62.7523975309337" height="62.7523975309337" width="395.52" id="textblock"><g><svg viewBox="0 0 395.52 33.84564469360139" height="33.84564469360139" width="395.52"><g transform="matrix(1,0,0,1,0,0)"><svg width="395.52" viewBox="-1.2 -31.86 378.84999999999997 32.42" height="33.84564469360139" data-palette-color="#ffffff"><path d="M25.9-31.86L19.14 0 14.99 0 7.86-26.95 2.15 0-1.2 0 5.54-31.86 10.25-31.86 17.09-6.15 22.56-31.86 25.9-31.86ZM50.05-10.21L30.39-10.21Q30-6.59 31.8-4.44 33.59-2.29 37.25-2.29L37.25-2.29Q39.79-2.29 42.01-3.34 44.24-4.39 45.6-5.96L45.6-5.96 47.58-4.35Q45.38-1.95 42.73-0.7 40.09 0.56 36.64 0.56L36.64 0.56Q33.98 0.56 31.99-0.32 30-1.2 28.72-2.77 27.44-4.35 27.01-6.52 26.58-8.69 27.19-11.35L27.19-11.35Q27.73-13.94 28.99-16.13 30.25-18.31 32.09-19.91 33.93-21.51 36.29-22.4 38.64-23.29 41.28-23.29L41.28-23.29Q44.19-23.29 46.14-22.31 48.09-21.34 49.19-19.62 50.29-17.9 50.46-15.5 50.63-13.11 50.05-10.21L50.05-10.21ZM31.05-13.06L47.09-13.06Q47.34-16.8 45.57-18.63 43.8-20.46 40.65-20.46L40.65-20.46Q39.04-20.46 37.56-19.93 36.08-19.41 34.84-18.43 33.59-17.46 32.59-16.08 31.59-14.7 31.05-13.06L31.05-13.06ZM55.2-8.69L58.17-22.75 61.54-22.75 58.54-8.69Q57.93-5.64 58.88-3.97 59.83-2.29 62.79-2.29L62.79-2.29Q64.64-2.29 66.34-3.15 68.04-4 69.39-5.43 70.75-6.86 71.66-8.7 72.58-10.55 73.04-12.55L73.04-12.55 75.19-22.75 78.54-22.75 73.73 0 70.38 0 71.58-5.69Q67.84 0.56 61.64 0.56L61.64 0.56Q53.24 0.56 55.2-8.69L55.2-8.69ZM106.78-22.29L105.12-19.56Q103.48-20.46 100.97-20.46L100.97-20.46Q98.92-20.46 97.15-19.58 95.38-18.7 93.95-17.27 92.52-15.84 91.52-14 90.52-12.16 90.13-10.21L90.13-10.21 88.57-2.86 93.72-2.86 93.13 0 79.48 0 80.07-2.86 85.22-2.86 88.84-19.9 83.68-19.9 84.27-22.75 92.77-22.75 91.57-17.04Q95.23-23.29 101.63-23.29L101.63-23.29Q103.39-23.29 104.61-23.07 105.83-22.85 106.78-22.29L106.78-22.29ZM108.02-6.15L108.02-6.15Q108.46-8.3 109.84-9.75 111.22-11.21 113.15-12.05 115.08-12.89 117.42-13.27 119.77-13.65 122.11-13.65L122.11-13.65Q123.01-13.65 123.72-13.62 124.43-13.6 125.08-13.55 125.72-13.5 126.34-13.43 126.97-13.35 127.77-13.26L127.77-13.26 128.12-14.89Q128.48-16.55 127.98-17.63 127.48-18.7 126.55-19.32 125.62-19.95 124.53-20.2 123.43-20.46 122.62-20.46L122.62-20.46Q120.06-20.46 117.79-19.78 115.52-19.09 113.42-17.94L113.42-17.94 112.42-20.46Q114.76-21.7 117.49-22.5 120.23-23.29 123.28-23.29L123.28-23.29Q125.11-23.29 126.82-22.81 128.53-22.34 129.73-21.35 130.92-20.36 131.42-18.75 131.92-17.14 131.46-14.89L131.46-14.89 128.31 0 124.97 0 125.77-3.81Q124.62-2.71 123.34-1.88 122.06-1.05 120.74-0.52 119.42 0 118.12 0.28 116.81 0.56 115.71 0.56L115.71 0.56Q111.22 0.56 109.27-1.17 107.31-2.91 108.02-6.15ZM116.32-2.29L116.32-2.29Q118.42-2.29 120.24-2.92 122.06-3.54 123.42-4.47 124.77-5.4 125.65-6.45 126.53-7.5 126.72-8.35L126.72-8.35 127.16-10.5Q125.58-10.74 124.07-10.77 122.57-10.79 121.47-10.79L121.47-10.79Q119.67-10.79 117.95-10.55 116.23-10.3 114.87-9.75 113.52-9.2 112.56-8.33 111.61-7.45 111.37-6.15L111.37-6.15Q111.03-4.71 112.17-3.5 113.32-2.29 116.32-2.29ZM152.87-2.86L152.26 0 138.61 0 139.22-2.86 144.37-2.86 149.91-29 144.76-29 145.37-31.86 153.87-31.86 147.72-2.86 152.87-2.86ZM180.16-2.86L179.55 0 165.9 0 166.51-2.86 171.66-2.86 177.21-29 172.06-29 172.67-31.86 181.16-31.86 175.01-2.86 180.16-2.86ZM209.04-31.86L208.09-27.29 203.55-27.29 204.5-31.86 209.04-31.86ZM207.45-2.86L206.84 0 193.2 0 193.81-2.86 198.96-2.86 202.55-19.9 197.39-19.9 198-22.75 206.5-22.75 202.3-2.86 207.45-2.86ZM239.85-2.95L239.24 0 229.84 0 230.45-2.95 232.45-2.95 229.35-9.55 223.49-2.95 225.35-2.95 224.74 0 215.43 0 216.04-2.95 219.58-2.95 227.69-11.55 223.39-19.75 220.1-19.75 220.73-22.75 230.08-22.75 229.45-19.75 227.35-19.75 230.18-13.55 235.7-19.75 233.38-19.75 234.04-22.75 243.49-22.75 242.85-19.75 239.63-19.75 231.94-11.55 236.33-2.95 239.85-2.95ZM298.83-31.86L292.06 0 287.91 0 280.79-26.95 275.07 0 271.73 0 278.47-31.86 283.18-31.86 290.01-6.15 295.48-31.86 298.83-31.86ZM322.97-10.21L303.32-10.21Q302.93-6.59 304.72-4.44 306.52-2.29 310.18-2.29L310.18-2.29Q312.72-2.29 314.94-3.34 317.16-4.39 318.53-5.96L318.53-5.96 320.5-4.35Q318.31-1.95 315.66-0.7 313.01 0.56 309.57 0.56L309.57 0.56Q306.91 0.56 304.92-0.32 302.93-1.2 301.64-2.77 300.36-4.35 299.94-6.52 299.51-8.69 300.12-11.35L300.12-11.35Q300.66-13.94 301.91-16.13 303.17-18.31 305.01-19.91 306.86-21.51 309.21-22.4 311.57-23.29 314.21-23.29L314.21-23.29Q317.11-23.29 319.06-22.31 321.02-21.34 322.12-19.62 323.21-17.9 323.39-15.5 323.56-13.11 322.97-10.21L322.97-10.21ZM303.98-13.06L320.02-13.06Q320.26-16.8 318.49-18.63 316.72-20.46 313.57-20.46L313.57-20.46Q311.96-20.46 310.48-19.93 309.01-19.41 307.76-18.43 306.52-17.46 305.51-16.08 304.51-14.7 303.98-13.06L303.98-13.06ZM349.92-22.75L353.41-22.75 344.01 0 340.11 0 339.96-16.7 333 0 329.12 0 329.27-22.75 332.81-22.75 332.27-4.54 339.67-22.75 342.96-22.75 342.77-4.54 349.92-22.75ZM375.85-6.3L375.85-6.3Q375.46-4.3 374.17-2.98 372.89-1.66 371.15-0.88 369.4-0.1 367.37 0.23 365.35 0.56 363.49 0.56L363.49 0.56Q360.39 0.56 357.52-0.34 354.66-1.25 352.7-2.71L352.7-2.71 354.8-5.59Q357-4 359.24-3.15 361.49-2.29 364.1-2.29L364.1-2.29Q371.65-2.29 372.5-6.2L372.5-6.2Q372.7-7.15 372.2-7.75 371.7-8.35 370.72-8.73 369.74-9.11 368.45-9.33 367.16-9.55 365.69-9.74L365.69-9.74Q363.86-10.01 362.05-10.38 360.25-10.74 358.85-11.47 357.46-12.21 356.78-13.43 356.1-14.65 356.51-16.65L356.51-16.65Q356.9-18.36 358.02-19.6 359.15-20.85 360.77-21.68 362.39-22.51 364.45-22.9 366.5-23.29 368.6-23.29L368.6-23.29Q371.6-23.29 373.82-22.6 376.04-21.9 377.65-20.61L377.65-20.61 375.75-17.99Q374.11-19.36 372.21-19.91 370.3-20.46 367.96-20.46L367.96-20.46Q366.91-20.46 365.6-20.28 364.3-20.09 363.1-19.64 361.91-19.19 361-18.47 360.1-17.75 359.86-16.65L359.86-16.65Q359.66-15.7 360.16-15.12 360.66-14.55 361.63-14.17 362.59-13.79 363.9-13.57 365.2-13.35 366.64-13.16L366.64-13.16Q368.45-12.89 370.28-12.52 372.11-12.16 373.5-11.45 374.89-10.74 375.6-9.52 376.31-8.3 375.85-6.3Z" opacity="1" transform="matrix(1,0,0,1,0,0)" fill="#000000" class="wordmark-text-0" data-fill-palette-color="primary" id="text-0"></path></svg></g></svg></g><g transform="matrix(1,0,0,1,0,41.83578911028803)"><svg viewBox="0 0 395.52 20.916608420645662" height="20.916608420645662" width="395.52"><g transform="matrix(1,0,0,1,0,0)"><svg width="395.52" viewBox="3.78 -33.48 810.26 42.86" height="20.916608420645662" data-palette-color="#ff9966"><path d="M17.05 0L6.6 0 6.6-3.43 16.65-3.43Q19.9-3.43 21.26-4.81 22.63-6.2 22.63-8.65L22.63-8.65 22.63-9.55Q22.63-12.05 21.24-13.43 19.85-14.8 16.4-14.8L16.4-14.8 6.63-14.8 6.63-18.07 16.35-18.07Q19.43-18.07 20.74-19.41 22.05-20.75 22.05-23.13L22.05-23.13 22.05-23.58Q22.05-25.93 20.79-27.24 19.53-28.55 16.32-28.55L16.32-28.55 6.53-28.55 6.53-31.95 16.7-31.95Q21.8-31.95 24-29.93 26.2-27.9 26.2-24.23L26.2-24.23 26.2-23.73Q26.2-20.8 24.8-19.13 23.4-17.45 20.45-17.13L20.45-17.13 20.43-16.98Q23.8-16.48 25.33-14.63 26.85-12.78 26.85-9.47L26.85-9.47 26.85-8.45Q26.85-4.48 24.55-2.24 22.25 0 17.05 0L17.05 0ZM7.88 0L3.78 0 3.78-31.95 7.88-31.95 7.88 0ZM38.74-14.93L38.74-14.93 37.81-18.05 38.81-18.1Q39.61-21.2 41.56-22.99 43.51-24.78 46.74-24.78L46.74-24.78Q47.54-24.78 48.18-24.65 48.81-24.53 49.31-24.35L49.31-24.35 49.56-20.43Q48.94-20.63 48.18-20.75 47.41-20.88 46.49-20.88L46.49-20.88Q43.74-20.88 41.7-19.35 39.66-17.82 38.74-14.93ZM38.94 0L34.89 0 34.89-24.4 38.84-24.4 38.64-17.2 38.94-16.9 38.94 0ZM65.68 0.55L65.68 0.55Q60.1 0.55 57.28-2.18 54.45-4.9 54.45-9.98L54.45-9.98 54.45-14.33Q54.45-19.48 57.08-22.26 59.7-25.05 64.75-25.05L64.75-25.05Q68.15-25.05 70.43-23.79 72.7-22.53 73.85-20.2 75-17.88 75-14.65L75-14.65 75-13.75Q75-12.95 74.94-12.15 74.88-11.35 74.78-10.58L74.78-10.58 71.05-10.58Q71.1-11.78 71.11-12.85 71.13-13.93 71.13-14.83L71.13-14.83Q71.13-17.05 70.41-18.59 69.7-20.13 68.29-20.94 66.88-21.75 64.75-21.75L64.75-21.75Q61.6-21.75 60.03-19.93 58.45-18.1 58.45-14.7L58.45-14.7 58.45-12.38 58.48-11.88 58.48-9.55Q58.48-8.03 58.93-6.8 59.38-5.58 60.34-4.69 61.3-3.8 62.79-3.34 64.28-2.88 66.33-2.88L66.33-2.88Q68.7-2.88 70.75-3.5 72.8-4.13 74.6-5.2L74.6-5.2 74.23-1.7Q72.6-0.68 70.45-0.06 68.3 0.55 65.68 0.55ZM73.93-10.58L56.58-10.58 56.58-13.63 73.93-13.63 73.93-10.58ZM101.24 0L97.21 0 97.39-5.93 97.24-6.55 97.24-14.33 97.26-15.75Q97.26-18.73 95.75-20.15 94.24-21.58 90.96-21.58L90.96-21.58Q88.34-21.58 86.15-20.83 83.96-20.08 82.26-19.07L82.26-19.07 82.64-22.53Q83.59-23.1 84.9-23.66 86.21-24.23 87.9-24.6 89.59-24.98 91.61-24.98L91.61-24.98Q94.24-24.98 96.08-24.34 97.91-23.7 99.05-22.5 100.19-21.3 100.71-19.6 101.24-17.9 101.24-15.8L101.24-15.8 101.24 0ZM88.81 0.53L88.81 0.53Q85.19 0.53 83.25-1.24 81.31-3 81.31-6.28L81.31-6.28 81.31-7Q81.31-10.38 83.4-12.04 85.49-13.7 90.04-14.35L90.04-14.35 97.76-15.45 97.99-12.5 90.54-11.43Q87.74-11.03 86.54-10.06 85.34-9.1 85.34-7.23L85.34-7.23 85.34-6.83Q85.34-4.9 86.53-3.88 87.71-2.85 90.09-2.85L90.09-2.85Q92.19-2.85 93.69-3.58 95.19-4.3 96.11-5.53 97.04-6.75 97.36-8.25L97.36-8.25 97.99-5.5 97.21-5.5Q96.86-3.9 95.9-2.53 94.94-1.15 93.21-0.31 91.49 0.53 88.81 0.53ZM130.68 0L125.83 0 116.18-11.38 113.6-11.38 113.6-14.53 116.18-14.53 125.43-24.4 130.23-24.4 119.15-12.63 119.15-13.6 130.68 0ZM114 0L109.98 0 109.98-33.13 114-33.13 114 0ZM141.29 0L137.24 0 137.24-24.4 141.29-24.4 141.29 0ZM139.27-28.4L139.27-28.4Q138.02-28.4 137.4-29.06 136.79-29.73 136.79-30.88L136.79-30.88 136.79-31Q136.79-32.18 137.4-32.83 138.02-33.48 139.27-33.48L139.27-33.48Q140.52-33.48 141.14-32.83 141.77-32.18 141.77-31L141.77-31 141.77-30.88Q141.77-29.7 141.14-29.05 140.52-28.4 139.27-28.4ZM170.9 0L166.85 0 166.85-15.18Q166.85-17.15 166.32-18.57 165.78-20 164.57-20.79 163.35-21.58 161.25-21.58L161.25-21.58Q159.33-21.58 157.92-20.85 156.5-20.13 155.63-18.89 154.75-17.65 154.4-16.07L154.4-16.07 153.68-18.95 154.55-18.95Q154.95-20.6 155.95-21.96 156.95-23.33 158.64-24.14 160.33-24.95 162.78-24.95L162.78-24.95Q165.68-24.95 167.47-23.85 169.25-22.75 170.08-20.69 170.9-18.63 170.9-15.63L170.9-15.63 170.9 0ZM154.58 0L150.53 0 150.53-24.4 154.58-24.4 154.4-18.55 154.58-18.32 154.58 0ZM189.22-7.3L189.22-7.3Q184.24-7.3 181.58-9.47 178.92-11.65 178.92-15.7L178.92-15.7 178.92-16.32Q178.92-18.85 179.95-20.73 180.99-22.6 183.27-23.66 185.54-24.73 189.22-24.83L189.22-24.83 201.67-25.23 201.67-22.03 194.32-22.28 194.29-22.1Q196.02-21.75 197.12-20.9 198.22-20.05 198.75-18.78 199.29-17.5 199.29-15.8L199.29-15.8 199.29-15.25Q199.29-11.38 196.74-9.34 194.19-7.3 189.22-7.3ZM189.04 6.15L189.04 6.15 189.62 6.15Q191.87 6.15 193.48 5.81 195.09 5.48 195.97 4.75 196.84 4.03 196.84 2.83L196.84 2.83 196.84 2.73Q196.84 1.33 195.83 0.59 194.82-0.15 192.37-0.38L192.37-0.38 185.47-1 186.62-1.05Q185.22-0.85 184.15-0.4 183.09 0.05 182.49 0.79 181.89 1.53 181.89 2.63L181.89 2.63 181.89 2.68Q181.89 3.95 182.77 4.73 183.64 5.5 185.24 5.83 186.84 6.15 189.04 6.15ZM189.54 9.38L188.82 9.38Q185.52 9.38 183.13 8.81 180.74 8.25 179.43 6.99 178.12 5.73 178.12 3.6L178.12 3.6 178.12 3.5Q178.12 2 178.83 1 179.54 0 180.75-0.58 181.97-1.15 183.47-1.35L183.47-1.35 183.44-1.5Q181.39-1.85 180.42-2.71 179.44-3.58 179.44-4.95L179.44-4.95 179.44-4.98Q179.44-5.93 179.88-6.6 180.32-7.28 181.2-7.68 182.09-8.08 183.47-8.18L183.47-8.18 183.47-8.68 188.12-7.5 186.22-7.55Q184.52-7.53 183.87-7.14 183.22-6.75 183.22-5.98L183.22-5.98 183.22-5.95Q183.22-5.13 184.14-4.7 185.07-4.28 187.29-4.03L187.29-4.03 193.22-3.43Q197.09-3.03 198.87-1.56 200.64-0.1 200.64 2.75L200.64 2.75 200.64 2.88Q200.64 5.15 199.29 6.6 197.94 8.05 195.47 8.71 192.99 9.38 189.54 9.38L189.54 9.38ZM189.17-10.3L189.17-10.3Q191.27-10.3 192.65-10.91 194.04-11.53 194.75-12.76 195.47-14 195.47-15.8L195.47-15.8 195.47-16.4Q195.47-18.15 194.78-19.38 194.09-20.6 192.72-21.24 191.34-21.88 189.27-21.88L189.27-21.88 189.12-21.88Q186.87-21.88 185.45-21.19 184.04-20.5 183.4-19.26 182.77-18.03 182.77-16.38L182.77-16.38 182.77-15.8Q182.77-14 183.48-12.78 184.19-11.55 185.62-10.93 187.04-10.3 189.17-10.3ZM233.69 0.58L233.69 0.58Q231.39 0.58 229.48 0.2 227.57-0.18 226.07-0.73 224.57-1.28 223.57-1.83L223.57-1.83 223.14-5.95Q225.07-4.8 227.68-3.94 230.29-3.08 233.37-3.08L233.37-3.08Q237.07-3.08 238.84-4.39 240.62-5.7 240.62-8.33L240.62-8.33 240.62-8.72Q240.62-10.45 239.92-11.55 239.22-12.65 237.55-13.4 235.89-14.15 233.04-14.8L233.04-14.8Q229.44-15.65 227.28-16.81 225.12-17.98 224.15-19.73 223.19-21.48 223.19-24.08L223.19-24.08 223.19-24.3Q223.19-28.23 225.77-30.36 228.34-32.5 233.57-32.5L233.57-32.5Q236.99-32.5 239.4-31.8 241.82-31.1 243.34-30.25L243.34-30.25 243.72-26.45Q241.94-27.5 239.58-28.24 237.22-28.98 234.17-28.98L234.17-28.98Q231.74-28.98 230.24-28.4 228.74-27.83 228.07-26.75 227.39-25.68 227.39-24.15L227.39-24.15 227.39-24.05Q227.39-22.5 228.05-21.4 228.72-20.3 230.38-19.5 232.04-18.7 235.12-17.95L235.12-17.95Q238.64-17.13 240.77-16.05 242.89-14.98 243.85-13.25 244.82-11.53 244.82-8.75L244.82-8.75 244.82-8.22Q244.82-3.9 242.03-1.66 239.24 0.58 233.69 0.58ZM261.23 0.5L261.23 0.5Q258.41 0.5 256.68-0.35 254.96-1.2 254.18-2.93 253.41-4.65 253.41-7.23L253.41-7.23 253.41-22.63 257.41-22.63 257.41-7.7Q257.41-5.3 258.51-4.16 259.61-3.03 262.21-3.03L262.21-3.03Q263.68-3.03 265.04-3.35 266.41-3.68 267.61-4.28L267.61-4.28 267.23-0.8Q266.06-0.2 264.48 0.15 262.91 0.5 261.23 0.5ZM266.98-20.8L249.41-20.8 249.41-24.05 267.36-24.05 266.98-20.8ZM257.31-23.65L253.43-23.65 253.41-30.5 257.48-31.03 257.31-23.65ZM283.72 0.63L283.72 0.63Q278.47 0.63 275.76-2.21 273.04-5.05 273.04-10.38L273.04-10.38 273.04-14.1Q273.04-19.4 275.77-22.23 278.49-25.05 283.72-25.05L283.72-25.05Q288.97-25.05 291.68-22.23 294.39-19.4 294.39-14.1L294.39-14.1 294.39-10.38Q294.39-5.05 291.68-2.21 288.97 0.63 283.72 0.63ZM283.72-2.68L283.72-2.68Q286.97-2.68 288.66-4.6 290.34-6.53 290.34-10.15L290.34-10.15 290.34-14.33Q290.34-17.93 288.66-19.84 286.97-21.75 283.72-21.75L283.72-21.75Q280.49-21.75 278.79-19.84 277.09-17.93 277.09-14.33L277.09-14.33 277.09-10.15Q277.09-6.53 278.79-4.6 280.49-2.68 283.72-2.68ZM306.41-14.93L306.41-14.93 305.48-18.05 306.48-18.1Q307.28-21.2 309.23-22.99 311.18-24.78 314.41-24.78L314.41-24.78Q315.21-24.78 315.84-24.65 316.48-24.53 316.98-24.35L316.98-24.35 317.23-20.43Q316.61-20.63 315.84-20.75 315.08-20.88 314.16-20.88L314.16-20.88Q311.41-20.88 309.37-19.35 307.33-17.82 306.41-14.93ZM306.61 0L302.56 0 302.56-24.4 306.51-24.4 306.31-17.2 306.61-16.9 306.61 0ZM327.87 0L323.82 0 323.82-24.4 327.87-24.4 327.87 0ZM325.84-28.4L325.84-28.4Q324.59-28.4 323.98-29.06 323.37-29.73 323.37-30.88L323.37-30.88 323.37-31Q323.37-32.18 323.98-32.83 324.59-33.48 325.84-33.48L325.84-33.48Q327.09-33.48 327.72-32.83 328.34-32.18 328.34-31L328.34-31 328.34-30.88Q328.34-29.7 327.72-29.05 327.09-28.4 325.84-28.4ZM347.36 0.55L347.36 0.55Q341.78 0.55 338.96-2.18 336.13-4.9 336.13-9.98L336.13-9.98 336.13-14.33Q336.13-19.48 338.76-22.26 341.38-25.05 346.43-25.05L346.43-25.05Q349.83-25.05 352.11-23.79 354.38-22.53 355.53-20.2 356.68-17.88 356.68-14.65L356.68-14.65 356.68-13.75Q356.68-12.95 356.62-12.15 356.56-11.35 356.46-10.58L356.46-10.58 352.73-10.58Q352.78-11.78 352.79-12.85 352.81-13.93 352.81-14.83L352.81-14.83Q352.81-17.05 352.09-18.59 351.38-20.13 349.97-20.94 348.56-21.75 346.43-21.75L346.43-21.75Q343.28-21.75 341.71-19.93 340.13-18.1 340.13-14.7L340.13-14.7 340.13-12.38 340.16-11.88 340.16-9.55Q340.16-8.03 340.61-6.8 341.06-5.58 342.02-4.69 342.98-3.8 344.47-3.34 345.96-2.88 348.01-2.88L348.01-2.88Q350.38-2.88 352.43-3.5 354.48-4.13 356.28-5.2L356.28-5.2 355.91-1.7Q354.28-0.68 352.13-0.06 349.98 0.55 347.36 0.55ZM355.61-10.58L338.26-10.58 338.26-13.63 355.61-13.63 355.61-10.58ZM372.32 0.55L372.32 0.55Q369.37 0.55 367.17-0.09 364.97-0.73 363.52-1.48L363.52-1.48 363.15-5.23Q364.97-4.28 367.16-3.58 369.35-2.88 372.12-2.88L372.12-2.88Q374.95-2.88 376.37-3.78 377.8-4.67 377.8-6.45L377.8-6.45 377.8-6.73Q377.8-7.88 377.26-8.63 376.72-9.38 375.32-9.95 373.92-10.53 371.35-11.1L371.35-11.1Q368.27-11.78 366.5-12.69 364.72-13.6 363.96-14.95 363.2-16.3 363.2-18.25L363.2-18.25 363.2-18.48Q363.2-21.68 365.42-23.33 367.65-24.98 372.12-24.98L372.12-24.98Q375-24.98 377.11-24.33 379.22-23.68 380.57-22.88L380.57-22.88 380.95-19.45Q379.32-20.4 377.22-21.03 375.12-21.65 372.5-21.65L372.5-21.65Q370.6-21.65 369.42-21.26 368.25-20.88 367.72-20.16 367.2-19.45 367.2-18.45L367.2-18.45 367.2-18.25Q367.2-17.15 367.72-16.39 368.25-15.63 369.61-15.06 370.97-14.5 373.4-13.98L373.4-13.98Q376.52-13.35 378.36-12.48 380.2-11.6 381-10.26 381.8-8.93 381.8-6.83L381.8-6.83 381.8-6.4Q381.8-2.95 379.4-1.2 377 0.55 372.32 0.55ZM389.48-6.78L393.38-6.78Q393.46-6.3 393.55-5.54 393.63-4.78 393.63-3.9L393.63-3.9Q393.63-0.9 392.8 1.65 391.96 4.2 389.93 6.58L389.93 6.58 387.13 5.68Q388.43 3.6 389.06 1.33 389.68-0.95 389.68-3.73L389.68-3.73Q389.68-4.55 389.63-5.29 389.58-6.03 389.48-6.78L389.48-6.78ZM430.68-10.63L421.51-10.63 421.51-14.08 430.58-14.08Q433.86-14.08 435.33-15.71 436.81-17.35 436.81-20.23L436.81-20.23 436.81-22.4Q436.81-25.33 435.35-26.93 433.88-28.53 430.63-28.53L430.63-28.53 421.48-28.53 421.48-31.95 430.71-31.95Q436.06-31.95 438.5-29.44 440.93-26.93 440.93-22.53L440.93-22.53 440.93-20.13Q440.93-15.68 438.47-13.15 436.01-10.63 430.68-10.63L430.68-10.63ZM422.91 0L418.81 0 418.81-31.95 422.88-31.95 422.88-13.05 422.91-11.2 422.91 0ZM458.22 0.63L458.22 0.63Q452.97 0.63 450.26-2.21 447.55-5.05 447.55-10.38L447.55-10.38 447.55-14.1Q447.55-19.4 450.27-22.23 453-25.05 458.22-25.05L458.22-25.05Q463.47-25.05 466.18-22.23 468.9-19.4 468.9-14.1L468.9-14.1 468.9-10.38Q468.9-5.05 466.18-2.21 463.47 0.63 458.22 0.63ZM458.22-2.68L458.22-2.68Q461.47-2.68 463.16-4.6 464.85-6.53 464.85-10.15L464.85-10.15 464.85-14.33Q464.85-17.93 463.16-19.84 461.47-21.75 458.22-21.75L458.22-21.75Q455-21.75 453.3-19.84 451.6-17.93 451.6-14.33L451.6-14.33 451.6-10.15Q451.6-6.53 453.3-4.6 455-2.68 458.22-2.68ZM486.69 0L480.46 0 474.46-24.4 478.64-24.4 483.44-2.95 483.91-2.95 488.91-23.75 494.64-23.75 499.64-2.95 500.09-2.95 504.94-24.4 509.09-24.4 503.09 0 496.89 0 492.76-17.35 491.96-20.83 491.59-20.83 490.81-17.35 486.69 0ZM525.87 0.55L525.87 0.55Q520.3 0.55 517.47-2.18 514.65-4.9 514.65-9.98L514.65-9.98 514.65-14.33Q514.65-19.48 517.27-22.26 519.9-25.05 524.95-25.05L524.95-25.05Q528.35-25.05 530.62-23.79 532.9-22.53 534.05-20.2 535.2-17.88 535.2-14.65L535.2-14.65 535.2-13.75Q535.2-12.95 535.14-12.15 535.07-11.35 534.97-10.58L534.97-10.58 531.25-10.58Q531.3-11.78 531.31-12.85 531.32-13.93 531.32-14.83L531.32-14.83Q531.32-17.05 530.61-18.59 529.9-20.13 528.49-20.94 527.07-21.75 524.95-21.75L524.95-21.75Q521.8-21.75 520.22-19.93 518.65-18.1 518.65-14.7L518.65-14.7 518.65-12.38 518.67-11.88 518.67-9.55Q518.67-8.03 519.12-6.8 519.57-5.58 520.54-4.69 521.5-3.8 522.99-3.34 524.47-2.88 526.52-2.88L526.52-2.88Q528.9-2.88 530.95-3.5 533-4.13 534.8-5.2L534.8-5.2 534.42-1.7Q532.8-0.68 530.65-0.06 528.5 0.55 525.87 0.55ZM534.12-10.58L516.77-10.58 516.77-13.63 534.12-13.63 534.12-10.58ZM546.99-14.93L546.99-14.93 546.06-18.05 547.06-18.1Q547.86-21.2 549.81-22.99 551.76-24.78 554.99-24.78L554.99-24.78Q555.79-24.78 556.42-24.65 557.06-24.53 557.56-24.35L557.56-24.35 557.81-20.43Q557.19-20.63 556.42-20.75 555.66-20.88 554.74-20.88L554.74-20.88Q551.99-20.88 549.95-19.35 547.91-17.82 546.99-14.93ZM547.19 0L543.14 0 543.14-24.4 547.09-24.4 546.89-17.2 547.19-16.9 547.19 0ZM573.92 0.55L573.92 0.55Q568.35 0.55 565.52-2.18 562.7-4.9 562.7-9.98L562.7-9.98 562.7-14.33Q562.7-19.48 565.32-22.26 567.95-25.05 573-25.05L573-25.05Q576.4-25.05 578.67-23.79 580.95-22.53 582.1-20.2 583.25-17.88 583.25-14.65L583.25-14.65 583.25-13.75Q583.25-12.95 583.19-12.15 583.12-11.35 583.02-10.58L583.02-10.58 579.3-10.58Q579.35-11.78 579.36-12.85 579.37-13.93 579.37-14.83L579.37-14.83Q579.37-17.05 578.66-18.59 577.95-20.13 576.54-20.94 575.12-21.75 573-21.75L573-21.75Q569.85-21.75 568.27-19.93 566.7-18.1 566.7-14.7L566.7-14.7 566.7-12.38 566.72-11.88 566.72-9.55Q566.72-8.03 567.17-6.8 567.62-5.58 568.59-4.69 569.55-3.8 571.04-3.34 572.52-2.88 574.57-2.88L574.57-2.88Q576.95-2.88 579-3.5 581.05-4.13 582.85-5.2L582.85-5.2 582.47-1.7Q580.85-0.68 578.7-0.06 576.55 0.55 573.92 0.55ZM582.17-10.58L564.82-10.58 564.82-13.63 582.17-13.63 582.17-10.58ZM599.26 0.53L599.26 0.53Q594.86 0.53 592.56-2.2 590.26-4.93 590.26-10.15L590.26-10.15 590.26-14.18Q590.26-19.43 592.59-22.19 594.91-24.95 599.44-24.95L599.44-24.95Q601.69-24.95 603.34-24.19 604.99-23.43 606.01-22.05 607.04-20.68 607.39-18.8L607.39-18.8 608.71-18.8 607.51-15.08Q607.44-17.23 606.55-18.69 605.66-20.15 604.15-20.9 602.64-21.65 600.69-21.65L600.69-21.65Q597.59-21.65 595.95-19.85 594.31-18.05 594.31-14.55L594.31-14.55 594.31-9.9Q594.31-6.45 595.95-4.65 597.59-2.85 600.69-2.85L600.69-2.85Q602.54-2.85 603.96-3.56 605.39-4.28 606.33-5.54 607.26-6.8 607.61-8.4L607.61-8.4 608.61-5.5 607.41-5.5Q607.06-3.85 606.08-2.48 605.09-1.1 603.43-0.29 601.76 0.53 599.26 0.53ZM611.46 0L607.41 0 607.59-5.9 607.51-7.2 607.51-17.4 607.54-18.25 607.44-25.18 607.44-33.13 611.46-33.13 611.46 0ZM649.06 0.53L649.06 0.53Q646.81 0.53 645.15-0.23 643.49-0.98 642.46-2.38 641.44-3.78 641.09-5.63L641.09-5.63 639.74-5.63 640.96-9.43Q641.09-7.23 642-5.76 642.91-4.3 644.44-3.58 645.96-2.85 647.89-2.85L647.89-2.85Q650.94-2.85 652.55-4.65 654.16-6.45 654.16-10L654.16-10 654.16-14.58Q654.16-18.05 652.54-19.85 650.91-21.65 647.81-21.65L647.81-21.65Q645.96-21.65 644.54-20.93 643.11-20.2 642.18-18.95 641.24-17.7 640.89-16.1L640.89-16.1 639.96-18.93 641.11-18.93Q641.49-20.6 642.45-21.96 643.41-23.33 645.09-24.14 646.76-24.95 649.24-24.95L649.24-24.95Q653.64-24.95 655.94-22.21 658.24-19.48 658.24-14.28L658.24-14.28 658.24-10.23Q658.24-4.98 655.9-2.23 653.56 0.53 649.06 0.53ZM641.09 0L637.04 0 637.04-33.13 641.06-33.13 641.06-25.18 640.94-18.18 640.96-17.4 640.96-7.2 640.91-5.9 641.09 0ZM674.28-3.78L676.6-3.78 674.48-2.85 681.78-24.4 685.95-24.4 674.48 8.6 670.38 8.6 674.23-2.55 676-1 671.4-1 663.43-24.4 667.63-24.4 674.28-3.78ZM720.45 0.58L720.45 0.58Q714.53 0.58 711.57-2.75 708.6-6.08 708.6-12.2L708.6-12.2 708.6-19.78Q708.6-25.9 711.55-29.21 714.5-32.52 720.4-32.52L720.4-32.52Q722.3-32.52 723.87-32.18 725.43-31.83 726.65-31.28 727.88-30.73 728.73-30.13L728.73-30.13 729.08-26.28Q727.6-27.33 725.62-28.11 723.63-28.9 720.95-28.9L720.95-28.9Q716.93-28.9 714.88-26.51 712.83-24.13 712.83-19.73L712.83-19.73 712.83-12.35Q712.83-7.98 714.9-5.56 716.98-3.15 721.1-3.15L721.1-3.15Q723.75-3.15 725.79-3.93 727.83-4.7 729.33-5.83L729.33-5.83 728.98-1.88Q728.13-1.28 726.88-0.7 725.63-0.13 724.02 0.23 722.4 0.58 720.45 0.58ZM746.24 0.63L746.24 0.63Q740.99 0.63 738.28-2.21 735.57-5.05 735.57-10.38L735.57-10.38 735.57-14.1Q735.57-19.4 738.29-22.23 741.02-25.05 746.24-25.05L746.24-25.05Q751.49-25.05 754.2-22.23 756.92-19.4 756.92-14.1L756.92-14.1 756.92-10.38Q756.92-5.05 754.2-2.21 751.49 0.63 746.24 0.63ZM746.24-2.68L746.24-2.68Q749.49-2.68 751.18-4.6 752.87-6.53 752.87-10.15L752.87-10.15 752.87-14.33Q752.87-17.93 751.18-19.84 749.49-21.75 746.24-21.75L746.24-21.75Q743.02-21.75 741.32-19.84 739.62-17.93 739.62-14.33L739.62-14.33 739.62-10.15Q739.62-6.53 741.32-4.6 743.02-2.68 746.24-2.68ZM773.13 0.53L773.13 0.53Q768.73 0.53 766.43-2.2 764.13-4.93 764.13-10.15L764.13-10.15 764.13-14.18Q764.13-19.43 766.45-22.19 768.78-24.95 773.3-24.95L773.3-24.95Q775.55-24.95 777.2-24.19 778.85-23.43 779.88-22.05 780.9-20.68 781.25-18.8L781.25-18.8 782.58-18.8 781.38-15.08Q781.3-17.23 780.42-18.69 779.53-20.15 778.02-20.9 776.5-21.65 774.55-21.65L774.55-21.65Q771.45-21.65 769.82-19.85 768.18-18.05 768.18-14.55L768.18-14.55 768.18-9.9Q768.18-6.45 769.82-4.65 771.45-2.85 774.55-2.85L774.55-2.85Q776.4-2.85 777.83-3.56 779.25-4.28 780.19-5.54 781.13-6.8 781.48-8.4L781.48-8.4 782.48-5.5 781.28-5.5Q780.93-3.85 779.94-2.48 778.95-1.1 777.29-0.29 775.63 0.53 773.13 0.53ZM785.33 0L781.28 0 781.45-5.9 781.38-7.2 781.38-17.4 781.4-18.25 781.3-25.18 781.3-33.13 785.33-33.13 785.33 0ZM804.72 0.55L804.72 0.55Q799.14 0.55 796.32-2.18 793.49-4.9 793.49-9.98L793.49-9.98 793.49-14.33Q793.49-19.48 796.12-22.26 798.74-25.05 803.79-25.05L803.79-25.05Q807.19-25.05 809.47-23.79 811.74-22.53 812.89-20.2 814.04-17.88 814.04-14.65L814.04-14.65 814.04-13.75Q814.04-12.95 813.98-12.15 813.92-11.35 813.82-10.58L813.82-10.58 810.09-10.58Q810.14-11.78 810.15-12.85 810.17-13.93 810.17-14.83L810.17-14.83Q810.17-17.05 809.45-18.59 808.74-20.13 807.33-20.94 805.92-21.75 803.79-21.75L803.79-21.75Q800.64-21.75 799.07-19.93 797.49-18.1 797.49-14.7L797.49-14.7 797.49-12.38 797.52-11.88 797.52-9.55Q797.52-8.03 797.97-6.8 798.42-5.58 799.38-4.69 800.34-3.8 801.83-3.34 803.32-2.88 805.37-2.88L805.37-2.88Q807.74-2.88 809.79-3.5 811.84-4.13 813.64-5.2L813.64-5.2 813.27-1.7Q811.64-0.68 809.49-0.06 807.34 0.55 804.72 0.55ZM812.97-10.58L795.62-10.58 795.62-13.63 812.97-13.63 812.97-10.58Z" opacity="1" transform="matrix(1,0,0,1,0,0)" fill="#000000" class="slogan-text-1" data-fill-palette-color="secondary" id="text-1"></path></svg></g></svg></g></svg></g></svg></g><g transform="matrix(1,0,0,1,147.77260025057677,0)"><svg viewBox="0 0 101.95239949884639 86.72381338775038" height="86.72381338775038" width="101.95239949884639"><g><svg xmlns="http://www.w3.org/2000/svg" xmlns:xlink="http://www.w3.org/1999/xlink" version="1.1" x="8" y="0" viewBox="6.338 7 76.32400000000001 77.009" enable-background="new 0 0 89 89" xml:space="preserve" height="86.72381338775038" width="85.95239949884639" class="icon-icon-0" data-fill-palette-color="accent" id="icon-0"><rect x="6.338" y="7" width="76.324" height="19.885" fill="#000000" data-fill-palette-color="accent"></rect><rect x="6.338" y="30.5" width="26.111" height="26.109" fill="#000000" data-fill-palette-color="accent"></rect><rect x="37.872" y="31.1" width="44.79" height="4.017" fill="#000000" data-fill-palette-color="accent"></rect><rect x="37.872" y="37.932" width="44.79" height="4.017" fill="#000000" data-fill-palette-color="accent"></rect><rect x="37.872" y="45.041" width="44.79" height="4.017" fill="#000000" data-fill-palette-color="accent"></rect><rect x="37.872" y="52.124" width="44.79" height="4.018" fill="#000000" data-fill-palette-color="accent"></rect><rect x="6.338" y="58.966" width="76.324" height="4.018" fill="#000000" data-fill-palette-color="accent"></rect><rect x="6.338" y="65.797" width="76.324" height="4.018" fill="#000000" data-fill-palette-color="accent"></rect><rect x="6.338" y="72.907" width="76.324" height="4.018" fill="#000000" data-fill-palette-color="accent"></rect><rect x="6.338" y="79.991" width="76.324" height="4.018" fill="#000000" data-fill-palette-color="accent"></rect></svg></g></svg></g><g><rect width="71.2394802505768" height="3.0522351671742975" y="82.67157822057608" x="249.72499974942315" fill="#000000" data-fill-palette-color="secondary"></rect><rect width="71.2394802505768" height="3.0522351671742975" y="82.67157822057608" x="76.53311999999997" fill="#000000" data-fill-palette-color="secondary"></rect></g></svg></g><defs></defs></svg><rect width="395.52" height="167.67038300421063" fill="none" stroke="none" visibility="hidden"></rect></g></svg></g></svg>